HIERARCHY
ROOT SpineBase
{
  OFFSET 0.000000 0.000000 0.000000
  CHANNELS 6 Xposition Yposition Zposition Zrotation Xrotation Yrotation
  JOINT SpineMid
  {
    OFFSET -0.000000 32.996795 0.000000
    CHANNELS 3 Zrotation Xrotation Yrotation
    JOINT SpineShoulder
    {
      OFFSET -0.136607 24.427076 -0.753533
      CHANNELS 3 Zrotation Xrotation Yrotation
      JOINT Neck
      {
        OFFSET -0.091674 8.057157 -0.581506
        CHANNELS 3 Zrotation Xrotation Yrotation
        JOINT Head
        {
          OFFSET -5.194330 12.179916 5.108298
          CHANNELS 3 Zrotation Xrotation Yrotation
          End Site
          {
            OFFSET 0 0 0
          }
        }
      }
      JOINT ShoulderLeft
      {
        OFFSET -7.499824 -3.728782 18.334019
        CHANNELS 3 Zrotation Xrotation Yrotation
        JOINT ElbowLeft
        {
          OFFSET -15.398113 -16.513085 -18.682796
          CHANNELS 3 Zrotation Xrotation Yrotation
          JOINT WristLeft
          {
            OFFSET -24.773960 -5.175740 -8.388286
            CHANNELS 3 Zrotation Xrotation Yrotation
            JOINT HandLeft
            {
              OFFSET -0.450194 -2.947700 -4.474397
              CHANNELS 3 Zrotation Xrotation Yrotation
              JOINT HandTipLeft
              {
                OFFSET -1.622093 -2.866810 -4.466832
                CHANNELS 3 Zrotation Xrotation Yrotation
                End Site
                {
                  OFFSET 0 0 0
                }
              }
              JOINT ThumbLeft
              {
                OFFSET 0.577721 1.730356 -4.751539
                CHANNELS 3 Zrotation Xrotation Yrotation
                End Site
                {
                  OFFSET 0 0 0
                }
              }
            }
          }
        }
      }
      JOINT ShoulderRight
      {
        OFFSET 6.161697 -3.851198 -14.997008
        CHANNELS 3 Zrotation Xrotation Yrotation
        JOINT ElbowRight
        {
          OFFSET 1.469871 -21.601093 -6.702892
          CHANNELS 3 Zrotation Xrotation Yrotation
          JOINT WristRight
          {
            OFFSET -22.325267 -8.826688 7.940435
            CHANNELS 3 Zrotation Xrotation Yrotation
            JOINT HandRight
            {
              OFFSET -8.071611 -1.409479 1.920858
              CHANNELS 3 Zrotation Xrotation Yrotation
              JOINT HandTipRight
              {
                OFFSET -5.860880 -4.246419 0.545775
                CHANNELS 3 Zrotation Xrotation Yrotation
                End Site
                {
                  OFFSET 0 0 0
                }
              }
              JOINT ThumbRight
              {
                OFFSET 5.828735 -3.999900 2.253637
                CHANNELS 3 Zrotation Xrotation Yrotation
                End Site
                {
                  OFFSET 0 0 0
                }
              }
            }
          }
        }
      }
    }
  }
  JOINT HipLeft
  {
    OFFSET -3.868364 -0.639579 2.144227
    CHANNELS 3 Zrotation Xrotation Yrotation
    JOINT KneeLeft
    {
      OFFSET 3.119787 -34.326202 5.288549
      CHANNELS 3 Zrotation Xrotation Yrotation
      JOINT AnkleLeft
      {
        OFFSET 12.923825 -36.925702 4.238801
        CHANNELS 3 Zrotation Xrotation Yrotation
        JOINT FootLeft
        {
          OFFSET -4.952168 -5.525868 -1.918567
          CHANNELS 3 Zrotation Xrotation Yrotation
          End Site
          {
            OFFSET 0 0 0
          }
        }
      }
    }
  }
  JOINT HipRight
  {
    OFFSET 2.733827 1.897191 -9.552816
    CHANNELS 3 Zrotation Xrotation Yrotation
    JOINT KneeRight
    {
      OFFSET 5.724149 -32.285181 -3.804476
      CHANNELS 3 Zrotation Xrotation Yrotation
      JOINT AnkleRight
      {
        OFFSET 10.658224 -36.028899 3.470005
        CHANNELS 3 Zrotation Xrotation Yrotation
        JOINT FootRight
        {
          OFFSET -2.459409 -7.168281 -1.070418
          CHANNELS 3 Zrotation Xrotation Yrotation
          End Site
          {
            OFFSET 0 0 0
          }
        }
      }
    }
  }
}
MOTION
Frames: 15
Frame Time: 0.033333
52.415088 83.397290 365.109687 0.918110 0.632894 -4.279427 0.693483 -1.016247 4.337330 0.441725 -0.597295 0.094530 -17.346976 -45.502911 -27.041355 0.000000 0.000000 0.000000 15.330532 12.082679 -32.318665 -64.268334 16.280861 -32.514457 -33.697624 31.929467 88.376832 -45.730194 21.859328 -6.440898 0.000000 0.000000 0.000000 0.000000 0.000000 0.000000 -28.894522 8.837212 11.193345 -20.187715 -2.957527 -34.545942 12.993372 1.850705 8.854447 17.814513 -36.214560 48.732763 0.000000 0.000000 0.000000 0.000000 0.000000 0.000000 0.082806 -4.301569 4.083339 0.408970 7.991121 1.781775 -1.382178 -5.937080 -0.187801 0.000000 0.000000 0.000000 -2.976364 10.946127 6.672878 1.894652 -6.493023 -0.278918 -10.507797 14.954929 -6.080955 0.000000 0.000000 0.000000
52.205374 84.165514 365.491426 1.497252 1.313930 27.634965 0.185056 -1.011435 -27.564111 0.309381 -0.423125 0.118846 -14.682890 -43.737061 -24.519985 0.000000 0.000000 0.000000 10.540649 15.661832 -29.300514 -54.371390 13.883338 -33.781606 -35.154718 35.118302 85.577242 -41.083413 10.901261 -9.309766 0.000000 0.000000 0.000000 0.000000 0.000000 0.000000 -32.921675 5.068823 11.238411 -17.545438 -0.673092 -34.389791 15.361707 3.807789 7.579996 -1.000315 -29.377311 32.142340 0.000000 0.000000 0.000000 0.000000 0.000000 0.000000 -1.935917 -0.469142 -27.660061 0.980609 4.286248 1.578693 -0.244397 -4.239947 -1.928337 0.000000 0.000000 0.000000 1.623239 7.398874 -26.296842 1.206432 -3.165691 0.239869 -3.535890 10.783302 -6.589106 0.000000 0.000000 0.000000
52.036032 84.800657 365.868602 2.072606 2.335438 48.866395 -0.009073 -0.616816 -48.803008 0.211517 -0.017128 0.134941 -12.397031 -36.301382 -17.521060 0.000000 0.000000 0.000000 2.362796 20.912129 -23.634536 -40.835117 10.860390 -36.232441 -34.741973 29.986456 83.421395 -44.208806 8.335532 -6.058188 0.000000 0.000000 0.000000 0.000000 0.000000 0.000000 -38.725106 1.157548 11.370957 -10.149020 0.843475 -35.004703 1.837717 -4.030028 8.188036 8.016147 -21.408452 27.481260 0.000000 0.000000 0.000000 0.000000 0.000000 0.000000 0.720963 2.659695 -48.491533 0.180888 -0.517386 1.029491 1.274096 -2.598564 -3.558563 0.000000 0.000000 0.000000 1.200047 3.741579 -48.049106 0.618674 -0.123793 0.751981 5.004132 4.651556 -6.126889 0.000000 0.000000 0.000000
51.957738 85.590718 366.375731 2.569274 3.215118 64.759544 0.210503 -0.066966 -64.728126 0.045923 0.311036 0.132946 -13.888611 -21.105391 -6.317298 0.000000 0.000000 0.000000 -8.761317 25.458897 -14.759483 -24.336967 6.038331 -38.202868 -34.021398 25.966670 79.651073 -39.223691 -0.270596 -5.812017 0.000000 0.000000 0.000000 0.000000 0.000000 0.000000 -45.661233 -2.595060 11.455759 0.227701 1.326743 -35.678512 -6.071371 -7.673811 6.702129 11.988552 -14.216827 23.542116 0.000000 0.000000 0.000000 0.000000 0.000000 0.000000 4.978828 4.924149 -64.324246 0.353082 -5.496609 0.716060 2.462213 -1.017456 -5.626104 0.000000 0.000000 0.000000 -2.352175 1.278998 -64.589891 0.188823 4.042639 1.482362 4.393765 1.186016 -4.735202 0.000000 0.000000 0.000000
51.844803 85.397813 366.577089 2.455001 4.248378 70.311602 0.575855 0.330472 -70.323159 -0.242965 0.478486 0.094021 -15.973549 -11.492060 0.857438 0.000000 0.000000 0.000000 -19.146570 24.402331 -4.038926 -10.051230 2.229734 -38.276329 -27.477631 11.178176 75.610685 -26.860065 8.976680 0.087890 0.000000 0.000000 0.000000 0.000000 0.000000 0.000000 -52.308668 -5.818202 11.333039 11.582551 0.778256 -36.490485 -10.796807 -10.349145 6.519736 10.908730 -7.266565 17.904175 0.000000 0.000000 0.000000 0.000000 0.000000 0.000000 6.986815 5.000310 -69.809474 0.598161 -7.836672 0.689598 3.162685 -0.604715 -6.776216 0.000000 0.000000 0.000000 -5.443661 -0.202975 -70.625565 -0.207990 6.697897 1.999558 -0.790773 3.352102 -4.852815 0.000000 0.000000 0.000000
51.764458 84.326657 366.491039 1.995214 4.928958 71.332244 0.756807 0.249958 -71.339689 -0.251824 0.369221 0.083916 -18.098280 -5.317092 5.570529 0.000000 0.000000 0.000000 -28.809520 19.531537 7.134455 3.309903 0.370327 -40.620194 -20.420749 -2.625823 72.739685 -12.498586 16.648270 1.166593 0.000000 0.000000 0.000000 0.000000 0.000000 0.000000 -58.623441 -7.726823 11.682643 22.510086 -0.969070 -36.755320 -12.385438 -11.351706 7.036567 6.419271 -1.970148 12.669836 0.000000 0.000000 0.000000 0.000000 0.000000 0.000000 6.765856 4.379867 -70.725595 1.050980 -7.616390 0.958058 3.488476 -0.729155 -7.544727 0.000000 0.000000 0.000000 -7.032780 -1.332140 -71.921461 -0.277609 8.009769 2.269944 -1.735768 2.956841 -4.695757 0.000000 0.000000 0.000000
51.714144 82.494669 366.140241 1.443490 5.250919 69.118802 0.874869 0.150714 -69.105201 -0.235713 0.152812 0.072762 -20.004366 -2.378089 8.285643 0.000000 0.000000 0.000000 -32.988968 11.920372 14.751433 11.809555 -0.414611 -41.821984 -18.249344 -10.083200 69.864588 -5.488291 22.839522 2.064641 0.000000 0.000000 0.000000 0.000000 0.000000 0.000000 -63.257588 -8.470218 12.453225 32.263059 -4.035144 -35.647739 -11.220064 -11.312606 9.071412 0.136769 1.560288 7.345634 0.000000 0.000000 0.000000 0.000000 0.000000 0.000000 4.843001 3.153584 -68.407806 1.385742 -5.419465 1.295897 3.406144 -1.518462 -7.499589 0.000000 0.000000 0.000000 -6.920430 -2.228757 -69.727508 -0.035227 7.980669 2.287373 -2.068211 3.743086 -5.060765 0.000000 0.000000 0.000000
51.672657 80.377984 365.803243 1.265504 5.839451 62.224883 0.748132 0.245649 -62.212781 -0.261314 -0.068473 0.062262 -19.606936 -2.120285 8.472117 0.000000 0.000000 0.000000 -31.086954 3.311961 18.070315 14.495538 0.931590 -40.340686 -20.558254 -10.255247 65.092574 1.486576 22.558700 -2.332071 0.000000 0.000000 0.000000 0.000000 0.000000 0.000000 -65.378265 -10.192316 11.714148 40.629531 -5.229349 -33.184664 -6.705918 -10.578579 13.958494 -8.786509 6.333350 -0.710572 0.000000 0.000000 0.000000 0.000000 0.000000 0.000000 -0.203914 0.933710 -61.726290 2.027151 -0.041115 1.893745 2.133059 -3.148640 -6.577400 0.000000 0.000000 0.000000 -4.354933 -2.271254 -62.304849 0.242830 5.304253 1.907174 -2.787614 2.152824 -4.723043 0.000000 0.000000 0.000000
51.548506 78.753468 365.452710 1.065526 6.229872 56.129512 0.608574 0.186148 -56.107219 -0.175499 -0.311449 0.067840 -16.193421 -4.427589 5.842001 0.000000 0.000000 0.000000 -26.126004 -2.131591 17.892579 12.590439 1.989458 -33.490773 -21.142072 -9.034717 57.907750 5.236434 20.038610 -5.103524 0.000000 0.000000 0.000000 0.000000 0.000000 0.000000 -65.506761 -11.048602 11.166553 45.671480 -5.257725 -31.812487 0.895327 -9.059934 21.864738 -20.841215 10.078965 -8.118853 0.000000 0.000000 0.000000 0.000000 0.000000 0.000000 -3.362937 -1.241662 -55.952442 2.745047 3.466586 2.203604 0.267151 -4.946131 -4.752183 0.000000 0.000000 0.000000 -2.519023 -2.312106 -55.861359 0.334001 3.591397 1.722270 -3.696234 -0.389028 -4.043159 0.000000 0.000000 0.000000
51.373998 77.476751 365.087935 0.979132 6.467471 46.897969 0.422885 0.136829 -46.872010 -0.120768 -0.446957 0.071463 -15.215932 -3.327774 6.086121 0.000000 0.000000 0.000000 -22.684461 -3.966340 16.715957 12.807787 -0.236785 -26.781338 -24.747377 -7.836606 53.562380 4.902542 13.662454 -5.289747 0.000000 0.000000 0.000000 0.000000 0.000000 0.000000 -63.609128 -12.334316 9.902486 48.139606 -4.635551 -28.569439 8.013239 -4.153307 23.956049 -29.043544 9.876756 -11.665569 0.000000 0.000000 0.000000 0.000000 0.000000 0.000000 -6.394447 -4.399158 -47.331855 3.672426 7.621061 2.500378 -1.116551 -5.987771 -3.851066 0.000000 0.000000 0.000000 -0.246915 -1.701652 -46.223087 0.239223 1.493675 1.497630 -3.862080 -0.851119 -4.084975 0.000000 0.000000 0.000000
51.169385 76.804374 364.740002 1.045260 6.627525 32.152707 0.260581 0.104177 -32.130217 -0.058602 -0.544957 0.081646 -14.504487 -2.414189 6.234950 0.000000 0.000000 0.000000 -19.681773 -5.350914 15.460749 13.859541 -2.431161 -20.361303 -29.151618 -5.942814 50.303856 3.434553 6.870572 -4.795378 0.000000 0.000000 0.000000 0.000000 0.000000 0.000000 -62.306739 -13.963646 8.534723 50.273860 -3.441415 -26.012030 10.048510 -2.736076 26.900219 -31.119914 10.162620 -14.661845 0.000000 0.000000 0.000000 0.000000 0.000000 0.000000 -7.561759 -8.999399 -33.320437 4.271926 11.444457 2.633076 -2.287810 -7.100686 -2.626719 0.000000 0.000000 0.000000 1.741026 0.017771 -31.101223 0.015299 -0.780521 1.236647 -3.368807 0.562071 -4.768968 0.000000 0.000000 0.000000
50.902058 76.139410 364.491488 1.174974 6.669808 20.894072 0.182096 0.088171 -20.877391 -0.007837 -0.454523 0.093159 -13.953865 -2.103550 6.126445 0.000000 0.000000 0.000000 -14.628576 -3.683637 9.840726 12.693417 -6.501514 -4.008260 -33.583753 -0.163491 44.088127 0.721507 8.619215 0.025798 0.000000 0.000000 0.000000 0.000000 0.000000 0.000000 -60.675821 -15.528981 7.082000 48.839811 -1.983222 -23.832180 15.314603 0.521895 27.780123 -35.884751 14.849725 -19.807346 0.000000 0.000000 0.000000 0.000000 0.000000 0.000000 -6.860189 -12.681711 -22.458355 4.520265 14.235181 2.730749 -2.337156 -6.944905 -3.048982 0.000000 0.000000 0.000000 2.543416 1.380191 -19.707916 -0.284434 -1.929642 1.150934 -2.229258 3.896160 -6.189229 0.000000 0.000000 0.000000
50.757172 75.891384 364.315224 1.537998 6.734359 17.356089 0.077529 0.107026 -17.358720 0.103226 -0.231412 0.119911 -13.958850 -2.490843 5.798081 0.000000 0.000000 0.000000 -11.992325 -2.137851 5.680782 14.385363 -9.895263 8.493120 -38.751341 4.715355 42.427572 -1.729518 -2.297841 -0.516508 0.000000 0.000000 0.000000 0.000000 0.000000 0.000000 -60.217814 -17.039767 5.709213 50.140995 -0.398217 -23.168485 16.475198 0.638034 35.780856 -37.194640 18.143612 -24.390235 0.000000 0.000000 0.000000 0.000000 0.000000 0.000000 -7.117997 -14.191853 -19.200529 4.716514 15.696361 2.821502 -2.158367 -6.654627 -3.519578 0.000000 0.000000 0.000000 2.375479 1.553914 -16.226498 -0.326271 -1.813548 1.244500 -1.147070 5.040398 -6.929297 0.000000 0.000000 0.000000
50.645576 76.223998 364.339386 1.983997 6.632698 28.209124 0.023859 0.198611 -28.234503 0.118694 -0.069626 0.135049 -13.665745 -2.795593 5.383316 0.000000 0.000000 0.000000 -11.989053 -3.997525 6.692513 19.709985 -10.357365 8.296903 -42.184542 -0.455690 42.953313 -0.121263 -2.488797 0.063718 0.000000 0.000000 0.000000 0.000000 0.000000 0.000000 -59.449095 -18.409367 4.512513 51.372421 0.821068 -21.638530 17.019778 1.394501 39.119861 -35.658194 17.964377 -27.505655 0.000000 0.000000 0.000000 0.000000 0.000000 0.000000 -10.128714 -11.503121 -30.233296 5.199033 15.487481 2.987000 -2.336267 -5.990204 -4.614616 0.000000 0.000000 0.000000 1.596383 -0.015867 -27.356749 -0.147886 -0.067105 1.566395 -2.647087 0.431446 -5.322688 0.000000 0.000000 0.000000
50.452422 75.985297 364.221262 2.250464 6.663088 28.264958 0.038090 0.159981 -28.295348 0.114789 0.017420 0.146283 -12.907860 -3.080936 4.834769 0.000000 0.000000 0.000000 -11.815189 -5.889439 7.710753 22.798257 -10.176881 7.137173 -43.477691 -8.472678 44.281840 2.532522 -1.479052 -0.099110 0.000000 0.000000 0.000000 0.000000 0.000000 0.000000 -59.037942 -19.695718 3.472280 52.364696 1.791734 -20.146478 17.963406 2.594401 39.441025 -32.255766 14.313808 -28.876667 0.000000 0.000000 0.000000 0.000000 0.000000 0.000000 -10.995038 -12.198384 -30.536150 5.306911 16.803182 3.104633 -1.561181 -5.827922 -5.397150 0.000000 0.000000 0.000000 1.425975 -0.245674 -27.494183 -0.141106 0.379514 1.702148 -2.801199 -0.041400 -5.328770 0.000000 0.000000 0.000000
